<svg xmlns="http://www.w3.org/2000/svg" xmlns:xlink="http://www.w3.org/1999/xlink" contentStyleType="text/css" data-diagram-type="CLASS" height="580px" preserveAspectRatio="none" style="width:573px;height:580px;background:#FFFFFF;" version="1.1" viewBox="0 0 573 580" width="573px" zoomAndPan="magnify"><?plantuml 1.2026.3beta5?><defs/><g><!--class products--><g class="entity" data-qualified-name="products" data-source-line="1" id="ent0002"><rect fill="#F1F1F1" height="145.7813" rx="2.5" ry="2.5" style="stroke:#181818;stroke-width:0.5;" width="198.915" x="7" y="7"/><ellipse cx="71.4834" cy="23" fill="#ADD1B2" rx="11" ry="11" style="stroke:#181818;stroke-width:1;"/><path d="M74.4521,28.6406 Q73.874,28.9375 73.2334,29.0781 Q72.5928,29.2344 71.8896,29.2344 Q69.3896,29.2344 68.0615,27.5938 Q66.749,25.9375 66.749,22.8125 Q66.749,19.6875 68.0615,18.0313 Q69.3896,16.375 71.8896,16.375 Q72.5928,16.375 73.2334,16.5313 Q73.8896,16.6875 74.4521,16.9844 L74.4521,19.7031 Q73.8271,19.125 73.2334,18.8594 Q72.6396,18.5781 72.0146,18.5781 Q70.6709,18.5781 69.9834,19.6563 Q69.2959,20.7188 69.2959,22.8125 Q69.2959,24.9063 69.9834,25.9844 Q70.6709,27.0469 72.0146,27.0469 Q72.6396,27.0469 73.2334,26.7813 Q73.8271,26.5 74.4521,25.9219 L74.4521,28.6406 Z " fill="#000000"/><text fill="#000000" font-family="sans-serif" font-size="14" lengthAdjust="spacing" textLength="61.4482" x="91.9834" y="27.8467">products</text><line style="stroke:#181818;stroke-width:0.5;" x1="8" x2="204.915" y1="39" y2="39"/><g data-visibility-modifier="PUBLIC_FIELD"><ellipse cx="18" cy="52.6484" fill="none" rx="3" ry="3" style="stroke:#038048;stroke-width:1;"/></g><text fill="#000000" font-family="sans-serif" font-size="14" lengthAdjust="spacing" textLength="72.0645" x="27" y="55.9951">id: integer</text><g data-visibility-modifier="PUBLIC_FIELD"><ellipse cx="18" cy="68.9453" fill="none" rx="3" ry="3" style="stroke:#038048;stroke-width:1;"/></g><text fill="#000000" font-family="sans-serif" font-size="14" lengthAdjust="spacing" textLength="101.3496" x="27" y="72.292">price: numeric</text><g data-visibility-modifier="PUBLIC_FIELD"><ellipse cx="18" cy="85.2422" fill="none" rx="3" ry="3" style="stroke:#038048;stroke-width:1;"/></g><text fill="#000000" font-family="sans-serif" font-size="14" lengthAdjust="spacing" textLength="161.8066" x="27" y="88.5889">stock_quantity: integer</text><g data-visibility-modifier="PUBLIC_FIELD"><ellipse cx="18" cy="101.5391" fill="none" rx="3" ry="3" style="stroke:#038048;stroke-width:1;"/></g><text fill="#000000" font-family="sans-serif" font-size="14" lengthAdjust="spacing" textLength="140.9365" x="27" y="104.8857">category_id: integer</text><g data-visibility-modifier="PUBLIC_FIELD"><ellipse cx="18" cy="117.8359" fill="none" rx="3" ry="3" style="stroke:#038048;stroke-width:1;"/></g><text fill="#000000" font-family="sans-serif" font-size="14" lengthAdjust="spacing" textLength="172.915" x="27" y="121.1826">name: character varying</text><g data-visibility-modifier="PUBLIC_FIELD"><ellipse cx="18" cy="134.1328" fill="none" rx="3" ry="3" style="stroke:#038048;stroke-width:1;"/></g><text fill="#000000" font-family="sans-serif" font-size="14" lengthAdjust="spacing" textLength="114.8848" x="27" y="137.4795">description: text</text><line style="stroke:#181818;stroke-width:0.5;" x1="8" x2="204.915" y1="144.7813" y2="144.7813"/></g><!--class orders--><g class="entity" data-qualified-name="orders" data-source-line="9" id="ent0003"><rect fill="#F1F1F1" height="129.4844" rx="2.5" ry="2.5" style="stroke:#181818;stroke-width:0.5;" width="317.8398" x="240.54" y="229.78"/><ellipse cx="372.7744" cy="245.78" fill="#ADD1B2" rx="11" ry="11" style="stroke:#181818;stroke-width:1;"/><path d="M375.7431,251.4206 Q375.165,251.7175 374.5244,251.8581 Q373.8837,252.0144 373.1806,252.0144 Q370.6806,252.0144 369.3525,250.3737 Q368.04,248.7175 368.04,245.5925 Q368.04,242.4675 369.3525,240.8112 Q370.6806,239.155 373.1806,239.155 Q373.8837,239.155 374.5244,239.3112 Q375.1806,239.4675 375.7431,239.7644 L375.7431,242.4831 Q375.1181,241.905 374.5244,241.6394 Q373.9306,241.3581 373.3056,241.3581 Q371.9619,241.3581 371.2744,242.4362 Q370.5869,243.4987 370.5869,245.5925 Q370.5869,247.6862 371.2744,248.7644 Q371.9619,249.8269 373.3056,249.8269 Q373.9306,249.8269 374.5244,249.5612 Q375.1181,249.28 375.7431,248.7019 L375.7431,251.4206 Z " fill="#000000"/><text fill="#000000" font-family="sans-serif" font-size="14" lengthAdjust="spacing" textLength="44.8711" x="393.2744" y="250.6267">orders</text><line style="stroke:#181818;stroke-width:0.5;" x1="241.54" x2="557.3798" y1="261.78" y2="261.78"/><g data-visibility-modifier="PUBLIC_FIELD"><ellipse cx="251.54" cy="275.4284" fill="none" rx="3" ry="3" style="stroke:#038048;stroke-width:1;"/></g><text fill="#000000" font-family="sans-serif" font-size="14" lengthAdjust="spacing" textLength="72.0645" x="260.54" y="278.7751">id: integer</text><g data-visibility-modifier="PUBLIC_FIELD"><ellipse cx="251.54" cy="291.7253" fill="none" rx="3" ry="3" style="stroke:#038048;stroke-width:1;"/></g><text fill="#000000" font-family="sans-serif" font-size="14" lengthAdjust="spacing" textLength="109.6006" x="260.54" y="295.072">user_id: integer</text><g data-visibility-modifier="PUBLIC_FIELD"><ellipse cx="251.54" cy="308.0222" fill="none" rx="3" ry="3" style="stroke:#038048;stroke-width:1;"/></g><text fill="#000000" font-family="sans-serif" font-size="14" lengthAdjust="spacing" textLength="291.8398" x="260.54" y="311.3689">order_date: timestamp without time zone</text><g data-visibility-modifier="PUBLIC_FIELD"><ellipse cx="251.54" cy="324.3191" fill="none" rx="3" ry="3" style="stroke:#038048;stroke-width:1;"/></g><text fill="#000000" font-family="sans-serif" font-size="14" lengthAdjust="spacing" textLength="159.5371" x="260.54" y="327.6657">total_amount: numeric</text><g data-visibility-modifier="PUBLIC_FIELD"><ellipse cx="251.54" cy="340.6159" fill="none" rx="3" ry="3" style="stroke:#038048;stroke-width:1;"/></g><text fill="#000000" font-family="sans-serif" font-size="14" lengthAdjust="spacing" textLength="176.2305" x="260.54" y="343.9626">status: character varying</text><line style="stroke:#181818;stroke-width:0.5;" x1="241.54" x2="557.3798" y1="351.2644" y2="351.2644"/></g><!--class users--><g class="entity" data-qualified-name="users" data-source-line="16" id="ent0004"><rect fill="#F1F1F1" height="129.4844" rx="2.5" ry="2.5" style="stroke:#181818;stroke-width:0.5;" width="316.3975" x="241.26" y="436.27"/><ellipse cx="376.2937" cy="452.27" fill="#ADD1B2" rx="11" ry="11" style="stroke:#181818;stroke-width:1;"/><path d="M379.2624,457.9106 Q378.6843,458.2075 378.0437,458.3481 Q377.4031,458.5044 376.6999,458.5044 Q374.1999,458.5044 372.8718,456.8638 Q371.5593,455.2075 371.5593,452.0825 Q371.5593,448.9575 372.8718,447.3013 Q374.1999,445.645 376.6999,445.645 Q377.4031,445.645 378.0437,445.8013 Q378.6999,445.9575 379.2624,446.2544 L379.2624,448.9731 Q378.6374,448.395 378.0437,448.1294 Q377.4499,447.8481 376.8249,447.8481 Q375.4812,447.8481 374.7937,448.9263 Q374.1062,449.9888 374.1062,452.0825 Q374.1062,454.1763 374.7937,455.2544 Q375.4812,456.3169 376.8249,456.3169 Q377.4499,456.3169 378.0437,456.0513 Q378.6374,455.77 379.2624,455.1919 L379.2624,457.9106 Z " fill="#000000"/><text fill="#000000" font-family="sans-serif" font-size="14" lengthAdjust="spacing" textLength="37.8301" x="396.7937" y="457.1167">users</text><line style="stroke:#181818;stroke-width:0.5;" x1="242.26" x2="556.6575" y1="468.27" y2="468.27"/><g data-visibility-modifier="PUBLIC_FIELD"><ellipse cx="252.26" cy="481.9184" fill="none" rx="3" ry="3" style="stroke:#038048;stroke-width:1;"/></g><text fill="#000000" font-family="sans-serif" font-size="14" lengthAdjust="spacing" textLength="72.0645" x="261.26" y="485.2651">id: integer</text><g data-visibility-modifier="PUBLIC_FIELD"><ellipse cx="252.26" cy="498.2153" fill="none" rx="3" ry="3" style="stroke:#038048;stroke-width:1;"/></g><text fill="#000000" font-family="sans-serif" font-size="14" lengthAdjust="spacing" textLength="290.3975" x="261.26" y="501.562">created_at: timestamp without time zone</text><g data-visibility-modifier="PUBLIC_FIELD"><ellipse cx="252.26" cy="514.5122" fill="none" rx="3" ry="3" style="stroke:#038048;stroke-width:1;"/></g><text fill="#000000" font-family="sans-serif" font-size="14" lengthAdjust="spacing" textLength="203.4512" x="261.26" y="517.8589">username: character varying</text><g data-visibility-modifier="PUBLIC_FIELD"><ellipse cx="252.26" cy="530.8091" fill="none" rx="3" ry="3" style="stroke:#038048;stroke-width:1;"/></g><text fill="#000000" font-family="sans-serif" font-size="14" lengthAdjust="spacing" textLength="171.8213" x="261.26" y="534.1557">email: character varying</text><g data-visibility-modifier="PUBLIC_FIELD"><ellipse cx="252.26" cy="547.1059" fill="none" rx="3" ry="3" style="stroke:#038048;stroke-width:1;"/></g><text fill="#000000" font-family="sans-serif" font-size="14" lengthAdjust="spacing" textLength="176.2305" x="261.26" y="550.4526">status: character varying</text><line style="stroke:#181818;stroke-width:0.5;" x1="242.26" x2="556.6575" y1="557.7544" y2="557.7544"/></g><!--class order_items--><g class="entity" data-qualified-name="order_items" data-source-line="23" id="ent0005"><rect fill="#F1F1F1" height="129.4844" rx="2.5" ry="2.5" style="stroke:#181818;stroke-width:0.5;" width="161.4746" x="318.72" y="15.15"/><ellipse cx="354.4081" cy="31.15" fill="#ADD1B2" rx="11" ry="11" style="stroke:#181818;stroke-width:1;"/><path d="M357.3769,36.7906 Q356.7988,37.0875 356.1581,37.2281 Q355.5175,37.3844 354.8144,37.3844 Q352.3144,37.3844 350.9863,35.7437 Q349.6738,34.0875 349.6738,30.9625 Q349.6738,27.8375 350.9863,26.1812 Q352.3144,24.525 354.8144,24.525 Q355.5175,24.525 356.1581,24.6812 Q356.8144,24.8375 357.3769,25.1344 L357.3769,27.8531 Q356.7519,27.275 356.1581,27.0094 Q355.5644,26.7281 354.9394,26.7281 Q353.5956,26.7281 352.9081,27.8062 Q352.2206,28.8687 352.2206,30.9625 Q352.2206,33.0562 352.9081,34.1344 Q353.5956,35.1969 354.9394,35.1969 Q355.5644,35.1969 356.1581,34.9312 Q356.7519,34.65 357.3769,34.0719 L357.3769,36.7906 Z " fill="#000000"/><text fill="#000000" font-family="sans-serif" font-size="14" lengthAdjust="spacing" textLength="83.501" x="373.0055" y="35.9967">order_items</text><line style="stroke:#181818;stroke-width:0.5;" x1="319.72" x2="479.1946" y1="47.15" y2="47.15"/><g data-visibility-modifier="PUBLIC_FIELD"><ellipse cx="329.72" cy="60.7984" fill="none" rx="3" ry="3" style="stroke:#038048;stroke-width:1;"/></g><text fill="#000000" font-family="sans-serif" font-size="14" lengthAdjust="spacing" textLength="72.0645" x="338.72" y="64.1451">id: integer</text><g data-visibility-modifier="PUBLIC_FIELD"><ellipse cx="329.72" cy="77.0953" fill="none" rx="3" ry="3" style="stroke:#038048;stroke-width:1;"/></g><text fill="#000000" font-family="sans-serif" font-size="14" lengthAdjust="spacing" textLength="116.6416" x="338.72" y="80.442">order_id: integer</text><g data-visibility-modifier="PUBLIC_FIELD"><ellipse cx="329.72" cy="93.3922" fill="none" rx="3" ry="3" style="stroke:#038048;stroke-width:1;"/></g><text fill="#000000" font-family="sans-serif" font-size="14" lengthAdjust="spacing" textLength="133.2188" x="338.72" y="96.7389">product_id: integer</text><g data-visibility-modifier="PUBLIC_FIELD"><ellipse cx="329.72" cy="109.6891" fill="none" rx="3" ry="3" style="stroke:#038048;stroke-width:1;"/></g><text fill="#000000" font-family="sans-serif" font-size="14" lengthAdjust="spacing" textLength="117.6533" x="338.72" y="113.0357">quantity: integer</text><g data-visibility-modifier="PUBLIC_FIELD"><ellipse cx="329.72" cy="125.9859" fill="none" rx="3" ry="3" style="stroke:#038048;stroke-width:1;"/></g><text fill="#000000" font-family="sans-serif" font-size="14" lengthAdjust="spacing" textLength="135.4746" x="338.72" y="129.3326">unit_price: numeric</text><line style="stroke:#181818;stroke-width:0.5;" x1="319.72" x2="479.1946" y1="136.6344" y2="136.6344"/></g><!--class categories--><g class="entity" data-qualified-name="categories" data-source-line="30" id="ent0006"><rect fill="#F1F1F1" height="96.8906" rx="2.5" ry="2.5" style="stroke:#181818;stroke-width:0.5;" width="198.915" x="7" y="246.08"/><ellipse cx="65.5156" cy="262.08" fill="#ADD1B2" rx="11" ry="11" style="stroke:#181818;stroke-width:1;"/><path d="M68.4844,267.7206 Q67.9063,268.0175 67.2656,268.1581 Q66.625,268.3144 65.9219,268.3144 Q63.4219,268.3144 62.0938,266.6738 Q60.7813,265.0175 60.7813,261.8925 Q60.7813,258.7675 62.0938,257.1113 Q63.4219,255.455 65.9219,255.455 Q66.625,255.455 67.2656,255.6112 Q67.9219,255.7675 68.4844,256.0644 L68.4844,258.7831 Q67.8594,258.205 67.2656,257.9394 Q66.6719,257.6581 66.0469,257.6581 Q64.7031,257.6581 64.0156,258.7363 Q63.3281,259.7988 63.3281,261.8925 Q63.3281,263.9863 64.0156,265.0644 Q64.7031,266.1269 66.0469,266.1269 Q66.6719,266.1269 67.2656,265.8613 Q67.8594,265.58 68.4844,265.0019 L68.4844,267.7206 Z " fill="#000000"/><text fill="#000000" font-family="sans-serif" font-size="14" lengthAdjust="spacing" textLength="73.3838" x="86.0156" y="266.9267">categories</text><line style="stroke:#181818;stroke-width:0.5;" x1="8" x2="204.915" y1="278.08" y2="278.08"/><g data-visibility-modifier="PUBLIC_FIELD"><ellipse cx="18" cy="291.7284" fill="none" rx="3" ry="3" style="stroke:#038048;stroke-width:1;"/></g><text fill="#000000" font-family="sans-serif" font-size="14" lengthAdjust="spacing" textLength="72.0645" x="27" y="295.0751">id: integer</text><g data-visibility-modifier="PUBLIC_FIELD"><ellipse cx="18" cy="308.0253" fill="none" rx="3" ry="3" style="stroke:#038048;stroke-width:1;"/></g><text fill="#000000" font-family="sans-serif" font-size="14" lengthAdjust="spacing" textLength="172.915" x="27" y="311.372">name: character varying</text><g data-visibility-modifier="PUBLIC_FIELD"><ellipse cx="18" cy="324.3222" fill="none" rx="3" ry="3" style="stroke:#038048;stroke-width:1;"/></g><text fill="#000000" font-family="sans-serif" font-size="14" lengthAdjust="spacing" textLength="114.8848" x="27" y="327.6689">description: text</text><line style="stroke:#181818;stroke-width:0.5;" x1="8" x2="204.915" y1="334.9706" y2="334.9706"/></g><!--link products to categories--><g class="link" data-entity-1="ent0002" data-entity-2="ent0006" data-link-type="dependency" data-source-line="35" id="lnk7"><path codeLine="35" d="M106.46,153.18 C106.46,183.76 106.46,212.54 106.46,239.82" fill="none" id="products-to-categories" style="stroke:#181818;stroke-width:1;"/><polygon fill="#181818" points="106.46,245.82,110.46,236.82,106.46,240.82,102.46,236.82,106.46,245.82" style="stroke:#181818;stroke-width:1;"/><text fill="#000000" font-family="sans-serif" font-size="13" lengthAdjust="spacing" textLength="75.8164" x="107.46" y="195.8469">category_id</text></g><!--link orders to users--><g class="link" data-entity-1="ent0003" data-entity-2="ent0004" data-link-type="dependency" data-source-line="36" id="lnk8"><path codeLine="36" d="M399.46,359.66 C399.46,384.02 399.46,405.76 399.46,430.1" fill="none" id="orders-to-users" style="stroke:#181818;stroke-width:1;"/><polygon fill="#181818" points="399.46,436.1,403.46,427.1,399.46,431.1,395.46,427.1,399.46,436.1" style="stroke:#181818;stroke-width:1;"/><text fill="#000000" font-family="sans-serif" font-size="13" lengthAdjust="spacing" textLength="46.7188" x="400.46" y="402.3369">user_id</text></g><!--link order_items to orders--><g class="link" data-entity-1="ent0005" data-entity-2="ent0003" data-link-type="dependency" data-source-line="37" id="lnk9"><path codeLine="37" d="M399.46,144.98 C399.46,171.76 399.46,196.8 399.46,223.57" fill="none" id="order_items-to-orders" style="stroke:#181818;stroke-width:1;"/><polygon fill="#181818" points="399.46,229.57,403.46,220.57,399.46,224.57,395.46,220.57,399.46,229.57" style="stroke:#181818;stroke-width:1;"/><text fill="#000000" font-family="sans-serif" font-size="13" lengthAdjust="spacing" textLength="53.2568" x="400.46" y="195.8469">order_id</text></g><?plantuml-src bP91RiGW34NtEONtrLo0HQ-2BB1ch0P8ZMcRLhrx2PECqcJIKNTWV-o7_LsFESCWoHUd6RuwW2TWRu2ZqfcatGTXHmPY2LHFBPGrkHVxMZ0gw_XRxh2UaunsMoTYg6NS1GMTai0RoiZnt7AUiXCUb5CqeFIXtNVd6bmIJtA4LZB9hazxONt5gAKuK5OC0xopNbBH5e7F5AbfDIds5aCgKRTVH2tv7kz2DZK_0dD2jR-tg8yPfZf_pOO2Sd-KV8nv7GShXIFOMR5RUtF5Bdv_woMoserJ5eBP4Kn70FzrnismfzFpkhfPcw-RdJDfhgioYr-wzKoc_2mrjr7y0000?></g></svg>