<svg xmlns="http://www.w3.org/2000/svg" xmlns:xlink="http://www.w3.org/1999/xlink" contentStyleType="text/css" data-diagram-type="DESCRIPTION" height="313px" preserveAspectRatio="none" style="width:286px;height:313px;background:#FFFFFF;" version="1.1" viewBox="0 0 286 313" width="286px" zoomAndPan="magnify"><?plantuml 1.2026.3beta5?><defs/><g><!--entity products--><g class="entity" data-qualified-name="products" data-source-line="1" id="ent0002"><rect fill="#F1F1F1" height="46.2969" rx="2.5" ry="2.5" style="stroke:#181818;stroke-width:0.5;" width="101.4482" x="12.97" y="7"/><rect fill="#F1F1F1" height="10" style="stroke:#181818;stroke-width:0.5;" width="15" x="94.4182" y="12"/><rect fill="#F1F1F1" height="2" style="stroke:#181818;stroke-width:0.5;" width="4" x="92.4182" y="14"/><rect fill="#F1F1F1" height="2" style="stroke:#181818;stroke-width:0.5;" width="4" x="92.4182" y="18"/><text fill="#000000" font-family="sans-serif" font-size="14" lengthAdjust="spacing" textLength="61.4482" x="27.97" y="39.9951">products</text></g><!--entity orders--><g class="entity" data-qualified-name="orders" data-source-line="2" id="ent0003"><rect fill="#F1F1F1" height="46.2969" rx="2.5" ry="2.5" style="stroke:#181818;stroke-width:0.5;" width="84.8711" x="168.26" y="130.3"/><rect fill="#F1F1F1" height="10" style="stroke:#181818;stroke-width:0.5;" width="15" x="233.1311" y="135.3"/><rect fill="#F1F1F1" height="2" style="stroke:#181818;stroke-width:0.5;" width="4" x="231.1311" y="137.3"/><rect fill="#F1F1F1" height="2" style="stroke:#181818;stroke-width:0.5;" width="4" x="231.1311" y="141.3"/><text fill="#000000" font-family="sans-serif" font-size="14" lengthAdjust="spacing" textLength="44.8711" x="183.26" y="163.2951">orders</text></g><!--entity users--><g class="entity" data-qualified-name="users" data-source-line="3" id="ent0004"><rect fill="#F1F1F1" height="46.2969" rx="2.5" ry="2.5" style="stroke:#181818;stroke-width:0.5;" width="77.8301" x="171.78" y="253.59"/><rect fill="#F1F1F1" height="10" style="stroke:#181818;stroke-width:0.5;" width="15" x="229.6101" y="258.59"/><rect fill="#F1F1F1" height="2" style="stroke:#181818;stroke-width:0.5;" width="4" x="227.6101" y="260.59"/><rect fill="#F1F1F1" height="2" style="stroke:#181818;stroke-width:0.5;" width="4" x="227.6101" y="264.59"/><text fill="#000000" font-family="sans-serif" font-size="14" lengthAdjust="spacing" textLength="37.8301" x="186.78" y="286.5851">users</text></g><!--entity order_items--><g class="entity" data-qualified-name="order_items" data-source-line="4" id="ent0005"><rect fill="#F1F1F1" height="46.2969" rx="2.5" ry="2.5" style="stroke:#181818;stroke-width:0.5;" width="123.501" x="148.94" y="7"/><rect fill="#F1F1F1" height="10" style="stroke:#181818;stroke-width:0.5;" width="15" x="252.441" y="12"/><rect fill="#F1F1F1" height="2" style="stroke:#181818;stroke-width:0.5;" width="4" x="250.441" y="14"/><rect fill="#F1F1F1" height="2" style="stroke:#181818;stroke-width:0.5;" width="4" x="250.441" y="18"/><text fill="#000000" font-family="sans-serif" font-size="14" lengthAdjust="spacing" textLength="83.501" x="163.94" y="39.9951">order_items</text></g><!--entity categories--><g class="entity" data-qualified-name="categories" data-source-line="5" id="ent0006"><rect fill="#F1F1F1" height="46.2969" rx="2.5" ry="2.5" style="stroke:#181818;stroke-width:0.5;" width="113.3838" x="7" y="130.3"/><rect fill="#F1F1F1" height="10" style="stroke:#181818;stroke-width:0.5;" width="15" x="100.3838" y="135.3"/><rect fill="#F1F1F1" height="2" style="stroke:#181818;stroke-width:0.5;" width="4" x="98.3838" y="137.3"/><rect fill="#F1F1F1" height="2" style="stroke:#181818;stroke-width:0.5;" width="4" x="98.3838" y="141.3"/><text fill="#000000" font-family="sans-serif" font-size="14" lengthAdjust="spacing" textLength="73.3838" x="22" y="163.2951">categories</text></g><!--link products to categories--><g class="link" data-entity-1="ent0002" data-entity-2="ent0006" data-link-type="dependency" data-source-line="6" id="lnk7"><path d="M63.69,53.68 C63.69,75.47 63.69,102.29 63.69,124.03" fill="none" id="products-to-categories" style="stroke:#181818;stroke-width:1;stroke-dasharray:7,7;"/><polygon fill="#181818" points="63.69,130.03,67.69,121.03,63.69,125.03,59.69,121.03,63.69,130.03" style="stroke:#181818;stroke-width:1;"/><text fill="#000000" font-family="sans-serif" font-size="13" lengthAdjust="spacing" textLength="29.7832" x="64.69" y="96.3669">uses</text></g><!--link orders to users--><g class="link" data-entity-1="ent0003" data-entity-2="ent0004" data-link-type="dependency" data-source-line="7" id="lnk8"><path d="M210.69,176.98 C210.69,198.76 210.69,225.59 210.69,247.33" fill="none" id="orders-to-users" style="stroke:#181818;stroke-width:1;stroke-dasharray:7,7;"/><polygon fill="#181818" points="210.69,253.33,214.69,244.33,210.69,248.33,206.69,244.33,210.69,253.33" style="stroke:#181818;stroke-width:1;"/><text fill="#000000" font-family="sans-serif" font-size="13" lengthAdjust="spacing" textLength="29.7832" x="211.69" y="219.6569">uses</text></g><!--link order_items to orders--><g class="link" data-entity-1="ent0005" data-entity-2="ent0003" data-link-type="dependency" data-source-line="8" id="lnk9"><path d="M210.69,53.68 C210.69,75.47 210.69,102.29 210.69,124.03" fill="none" id="order_items-to-orders" style="stroke:#181818;stroke-width:1;stroke-dasharray:7,7;"/><polygon fill="#181818" points="210.69,130.03,214.69,121.03,210.69,125.03,206.69,121.03,210.69,130.03" style="stroke:#181818;stroke-width:1;"/><text fill="#000000" font-family="sans-serif" font-size="13" lengthAdjust="spacing" textLength="29.7832" x="211.69" y="96.3669">uses</text></g><?plantuml-src IyxFBSZFIyqhKOWkACfFAKqkAOxbIaO8vXUbf1QX2fKMeuk05SLdbgJceeed9vQafkSNPQO2XH76A-ZfsQ78ALWf0Cqive9P1b40iGPL3ce7H05CDKG50000?></g></svg>